<?xml version="1.0" encoding="UTF-8" standalone="no"?>
<svg
   xmlns:dc="http://purl.org/dc/elements/1.1/"
   xmlns:cc="http://creativecommons.org/ns#"
   xmlns:rdf="http://www.w3.org/1999/02/22-rdf-syntax-ns#"
   xmlns:svg="http://www.w3.org/2000/svg"
   xmlns="http://www.w3.org/2000/svg"
   id="svg8"
   version="1.1"
   viewBox="0 0 105.83335 105.83335"
   height="105.83334mm"
   width="105.83334mm">
  <defs
     id="defs2" />
  <metadata
     id="metadata5">
    <rdf:RDF>
      <cc:Work
         rdf:about="">
        <dc:format>image/svg+xml</dc:format>
        <dc:type
           rdf:resource="http://purl.org/dc/dcmitype/StillImage" />
        <dc:title></dc:title>
      </cc:Work>
    </rdf:RDF>
  </metadata>
  <g
     transform="translate(-56.060116,-77.777237)"
     id="layer1">
    <path
       id="rect4513"
       transform="matrix(0.26458333,0,0,0.26458333,56.060116,77.777237)"
       d="M 0 0 L 0 400 L 400 400 L 400 0 L 0 0 z M 25 25 L 375 25 L 375 375 L 25 375 L 25 25 z "
       style="fill:#ffffff;fill-opacity:1;stroke:none;stroke-width:17.40251923;stroke-miterlimit:4;stroke-dasharray:none;stroke-opacity:1" />
    <path
       id="rect4515"
       transform="matrix(0.26458333,0,0,0.26458333,56.060116,77.777237)"
       d="M 25 25 L 25 375 L 375 375 L 375 25 L 25 25 z M 50 50 L 350 50 L 350 350 L 50 350 L 50 50 z "
       style="fill:#000000;fill-opacity:1;stroke:none;stroke-width:15.22720242;stroke-miterlimit:4;stroke-dasharray:none;stroke-opacity:1" />
    <rect
       y="126.06371"
       x="56.060116"
       height="9.2604132"
       width="26.458334"
       id="rect4519"
       style="fill:#ffffff;fill-opacity:1;stroke:none;stroke-width:16.22193146;stroke-miterlimit:4;stroke-dasharray:none;stroke-opacity:1" />
    <rect
       transform="rotate(-90)"
       style="fill:#ffffff;fill-opacity:1;stroke:none;stroke-width:16.22191429;stroke-miterlimit:4;stroke-dasharray:none;stroke-opacity:1"
       id="rect4521"
       width="26.458334"
       height="9.2603951"
       x="-183.61058"
       y="104.3466" />
    <rect
       y="126.06371"
       x="135.43512"
       height="9.2604132"
       width="26.458334"
       id="rect4523"
       style="fill:#ffffff;fill-opacity:1;stroke:none;stroke-width:16.22193146;stroke-miterlimit:4;stroke-dasharray:none;stroke-opacity:1" />
    <rect
       y="104.3466"
       x="-104.23557"
       height="9.2603951"
       width="26.458334"
       id="rect4525"
       style="fill:#ffffff;fill-opacity:1;stroke:none;stroke-width:16.22191429;stroke-miterlimit:4;stroke-dasharray:none;stroke-opacity:1"
       transform="rotate(-90)" />
    <rect
       y="110.85016"
       x="104.3466"
       height="39.6875"
       width="9.2603951"
       id="rect4527"
       style="fill:#000000;fill-opacity:1;stroke:none;stroke-width:21.0065136;stroke-miterlimit:4;stroke-dasharray:none;stroke-opacity:1" />
    <rect
       transform="rotate(-90)"
       style="fill:#000000;fill-opacity:1;stroke:none;stroke-width:21.00653458;stroke-miterlimit:4;stroke-dasharray:none;stroke-opacity:1"
       id="rect4529"
       width="9.2604132"
       height="39.6875"
       x="-135.32411"
       y="89.133041" />
    <rect
       y="126.0637"
       x="104.3466"
       height="9.260417"
       width="9.2603951"
       id="rect4531"
       style="fill:#ffffff;fill-opacity:1;stroke:none;stroke-width:20.9999752;stroke-miterlimit:4;stroke-dasharray:none;stroke-opacity:1" />
  </g>
</svg>
