<?xml version="1.0" encoding="utf-8"?>
<!-- Generator: Adobe Illustrator 19.1.0, SVG Export Plug-In . SVG Version: 6.00 Build 0)  -->
<svg version="1.1" xmlns="http://www.w3.org/2000/svg" xmlns:xlink="http://www.w3.org/1999/xlink" x="0px" y="0px" width="24px"
	 height="24px" viewBox="0 0 24 24" enable-background="new 0 0 24 24" xml:space="preserve">
<g id="Bounding_Boxes">
	<g id="ui_x5F_spec_x5F_header_copy_3">
	</g>
	<path fill="none" d="M0,0h24v24H0V0z"/>
</g>
<g id="Outline">
	<g id="ui_x5F_spec_x5F_header">
	</g>
	<g>
		<path d="M12,6c3.79,0,7.17,2.13,8.82,5.5C19.17,14.87,15.79,17,12,17s-7.17-2.13-8.82-5.5C4.83,8.13,8.21,6,12,6 M12,4
			C7,4,2.73,7.11,1,11.5C2.73,15.89,7,19,12,19s9.27-3.11,11-7.5C21.27,7.11,17,4,12,4L12,4z"/>
		<path d="M12,9c1.38,0,2.5,1.12,2.5,2.5S13.38,14,12,14s-2.5-1.12-2.5-2.5S10.62,9,12,9 M12,7c-2.48,0-4.5,2.02-4.5,4.5
			S9.52,16,12,16s4.5-2.02,4.5-4.5S14.48,7,12,7L12,7z"/>
	</g>
</g>
</svg>
