<?xml version="1.0" standalone="no"?>
<!DOCTYPE svg PUBLIC "-//W3C//DTD SVG 20010904//EN"
 "http://www.w3.org/TR/2001/REC-SVG-20010904/DTD/svg10.dtd">
<svg version="1.0" xmlns="http://www.w3.org/2000/svg"
 width="300.000000pt" height="300.000000pt" viewBox="0 0 300.000000 300.000000"
 preserveAspectRatio="xMidYMid meet">
<metadata>
Created by potrace 1.11, written by Peter Selinger 2001-2013
</metadata>
<g transform="translate(0.000000,300.000000) scale(0.100000,-0.100000)"
fill="#000000" stroke="none">
<path d="M1345 1499 c-164 -25 -270 -93 -324 -208 -37 -81 -36 -195 3 -274 35
-73 108 -137 211 -185 189 -88 239 -117 262 -151 33 -49 30 -86 -10 -126 -79
-79 -292 -65 -434 29 l-53 35 0 -134 0 -133 63 -21 c172 -57 411 -52 551 12
66 31 131 93 160 156 17 37 21 65 21 141 0 177 -51 239 -301 361 -182 89 -214
116 -214 180 0 30 6 46 26 64 40 38 86 48 193 43 93 -4 113 -10 239 -65 10 -4
12 21 10 118 l-3 124 -66 16 c-82 21 -256 30 -334 18z"/>
<path d="M528 1077 l-3 -413 -25 -49 c-53 -102 -154 -118 -292 -47 -5 2 -8
-53 -8 -122 l0 -125 42 -13 c70 -21 233 -15 300 11 113 44 188 126 231 254 20
58 21 87 25 490 l3 427 -135 0 -135 0 -3 -413z"/>
<path d="M1880 1380 l0 -110 165 0 165 0 2 -477 3 -478 133 -3 132 -3 0 481 0
480 170 0 171 0 -3 108 -3 107 -467 3 -468 2 0 -110z"/>
</g>
</svg>
